<?xml version="1.0" standalone="no"?>
<svg xmlns="http://www.w3.org/2000/svg" viewBox="0 0 147.1 29" width="147.1" height="29"><path fill="#e60215" fill-rule="nonzero" d="M3.53 18.82L0 19.10L0 0.96L9.14 0.96L8.86 3.79L3.53 3.79L3.53 8.50L7.30 8.50L7.30 11.47L3.53 11.47L3.53 18.82ZM14.21 3.58L10.85 3.72L10.85 0.24L14.21 0L14.21 3.58ZM14.18 18.82L10.82 19.10L10.82 5.74L14.18 5.45L14.18 18.82ZM21.74 19.22Q20.11 19.22 18.98 18.40Q17.86 17.57 17.86 15.46L17.86 15.46L17.86 7.99L15.98 7.99L16.13 5.45L17.95 5.45L18.29 2.52L21.22 2.11L21.22 5.45L24 5.45L23.86 7.99L21.24 7.99L21.24 15.43Q21.24 16.15 21.60 16.46Q21.96 16.78 22.66 16.78L22.66 16.78Q23.04 16.78 23.95 16.63L23.95 16.63L23.95 18.96Q23.86 18.98 23.20 19.10Q22.54 19.22 21.74 19.22L21.74 19.22ZM31.82 18.82L28.32 19.10L28.32 3.77L24.65 3.77L24.91 0.96L35.47 0.96L35.18 3.77L31.82 3.77L31.82 18.82ZM37.22 19.10L37.22 5.74L40.58 5.45L40.58 7.63Q41.30 6.60 42.37 5.96Q43.44 5.33 45.10 5.33L45.10 5.33L45.10 8.62Q44.23 8.62 42.83 8.92Q41.42 9.22 40.58 9.96L40.58 9.96L40.58 18.82L37.22 19.10ZM49.13 19.27Q48.26 19.27 47.57 18.73Q46.87 18.19 46.49 17.27Q46.10 16.34 46.10 15.19L46.10 15.19Q46.10 12.58 47.89 11.51Q49.68 10.44 52.06 10.30L52.06 10.30Q52.06 9 51.89 8.38Q51.72 7.75 51.07 7.75L51.07 7.75Q50.52 7.75 50.23 8.18Q49.94 8.62 49.87 9.29L49.87 9.29L46.58 8.71Q46.82 6.86 48.10 6.07Q49.37 5.28 51.07 5.28L51.07 5.28Q53.26 5.28 54.35 6.43Q55.44 7.58 55.44 9.43L55.44 9.43L55.44 16.42Q55.44 17.54 55.80 18.82L55.80 18.82L52.51 19.10L52.13 17.45Q51.70 18.22 50.86 18.74Q50.02 19.27 49.13 19.27L49.13 19.27ZM50.69 16.87Q51.10 16.87 51.37 16.68Q51.65 16.49 52.06 16.06L52.06 16.06L52.06 12.31Q50.86 12.31 50.14 12.96Q49.42 13.61 49.42 14.98L49.42 14.98Q49.42 15.89 49.74 16.38Q50.06 16.87 50.69 16.87L50.69 16.87ZM62.40 19.27Q60.86 19.27 59.77 18.31Q58.68 17.35 58.13 15.77Q57.58 14.18 57.58 12.34L57.58 12.34Q57.58 10.51 58.12 8.90Q58.66 7.30 59.76 6.29Q60.86 5.28 62.47 5.28L62.47 5.28Q63.70 5.28 64.67 5.89Q65.64 6.50 66.19 7.61Q66.74 8.71 66.79 10.13L66.79 10.13L63.60 10.27Q63.60 10.18 63.52 9.50Q63.43 8.83 63.16 8.40Q62.88 7.97 62.45 7.97L62.45 7.97Q61.49 7.97 61.22 9.28Q60.96 10.58 60.96 12.22L60.96 12.22Q60.96 13.82 61.24 15.13Q61.51 16.44 62.54 16.44L62.54 16.44Q63.84 16.44 63.89 13.90L63.89 13.90L66.72 14.21Q66.41 16.70 65.47 17.99Q64.54 19.27 62.40 19.27L62.40 19.27ZM79.08 18.26L76.10 19.27L73.37 12.55L72.26 14.02L72.26 18.96L68.90 18.96L68.90 1.39L72.26 0.96L72.26 9.89L75.70 5.45L79.34 5.45L75.55 10.32L79.08 18.26ZM85.20 19.27Q82.80 19.27 81.53 17.36Q80.26 15.46 80.26 12.29L80.26 12.29Q80.26 9.07 81.55 7.18Q82.85 5.28 85.32 5.28L85.32 5.28Q87.67 5.28 88.92 7.18Q90.17 9.07 90.17 12.29L90.17 12.29Q90.17 12.48 90.10 12.56Q90.02 12.65 90.02 12.67L90.02 12.67L83.62 12.67Q83.62 14.23 84.02 15.52Q84.43 16.80 85.27 16.80L85.27 16.80Q86.21 16.80 86.66 15.72Q87.12 14.64 87.14 14.59L87.14 14.59L89.69 15.55Q89.18 17.28 88.08 18.28Q86.98 19.27 85.20 19.27L85.20 19.27ZM83.62 10.73L86.86 10.73Q86.86 9.29 86.47 8.45Q86.09 7.61 85.27 7.61L85.27 7.61Q84.86 7.61 84.48 8.02Q84.10 8.42 83.86 9.14Q83.62 9.86 83.62 10.73L83.62 10.73ZM92.21 19.10L92.21 5.74L95.57 5.45L95.57 7.63Q96.29 6.60 97.36 5.96Q98.42 5.33 100.08 5.33L100.08 5.33L100.08 8.62Q99.22 8.62 97.81 8.92Q96.41 9.22 95.57 9.96L95.57 9.96L95.57 18.82L92.21 19.10Z" transform="translate(0, 4.864)"></path><line x1="109.08" y1="2%" x2="109.08" y2="98%" stroke="#e60215" stroke-linecap="round"></line><g fill="#000000" color="#000000" transform="translate(118.08 0) scale(0.058)"><svg width="500.0" height="500.0" x="0.0" y="0.0" viewBox="0 0 500 500"><g><path d="M207.141,178.454c0,0-40.297-55.686-125.578-92.318c0,0,91.873-14.657,143.895,75.463c0,0,21.98-107.705,174.375-104.038   c0,0-124.551,56.415-154.594,115.028c0,0,80.594,32.971,140.67-27.845c60.078-60.807,86.459-80.589,107.701-109.164   c0,0-84.256-53.483-162.648-29.304c0,0-80.391,17.584-111.366,109.164c0,0-23.217-75.596-117.956-76.193   c-51.026-0.322-48.942,7.295-95.248,28.57C6.391,67.816,108.233,218.748,207.141,178.454z"></path><g><g><path d="M224.958,196.744c-48.963,19.948-126.506,4.121-168.331-24.558c-20.237,32.786-31.919,71.418-31.919,112.778     C24.707,403.727,120.983,500,239.745,500c118.759,0,215.032-96.273,215.032-215.035c0-46.472-14.736-89.5-39.807-124.664     C340.996,231.217,224.958,196.744,224.958,196.744z"></path></g><path d="M219.626,177.98"></path></g></g></svg></g></svg>