<?xml version="1.0" standalone="no"?>
<svg xmlns="http://www.w3.org/2000/svg" viewBox="0 0 102.337 118.168" width="102.337" height="118.168"><polygon fill="#e60215" points="102.337,29.542 102.337,88.626 51.1685,118.168 0,88.626 0,29.542 51.1685,0"></polygon><g fill="white" color="white" transform="translate(29.1685 22.5) scale(0.088)"><svg width="500.0" height="500.0" x="0.0" y="0.0" viewBox="0 0 500 500"><g><path d="M207.141,178.454c0,0-40.297-55.686-125.578-92.318c0,0,91.873-14.657,143.895,75.463c0,0,21.98-107.705,174.375-104.038   c0,0-124.551,56.415-154.594,115.028c0,0,80.594,32.971,140.67-27.845c60.078-60.807,86.459-80.589,107.701-109.164   c0,0-84.256-53.483-162.648-29.304c0,0-80.391,17.584-111.366,109.164c0,0-23.217-75.596-117.956-76.193   c-51.026-0.322-48.942,7.295-95.248,28.57C6.391,67.816,108.233,218.748,207.141,178.454z"></path><g><g><path d="M224.958,196.744c-48.963,19.948-126.506,4.121-168.331-24.558c-20.237,32.786-31.919,71.418-31.919,112.778     C24.707,403.727,120.983,500,239.745,500c118.759,0,215.032-96.273,215.032-215.035c0-46.472-14.736-89.5-39.807-124.664     C340.996,231.217,224.958,196.744,224.958,196.744z"></path></g><path d="M219.626,177.98"></path></g></g></svg></g><path fill="white" fill-rule="nonzero" d="M4.12 20.83L0 21.17L0 0L10.67 0L10.33 3.30L4.12 3.30L4.12 8.79L8.51 8.79L8.51 12.26L4.12 12.26L4.12 20.83Z" transform="translate(45.835, 74.5)"></path></svg>